<svg version="1.1" id="Layer_1" xmlns="http://www.w3.org/2000/svg" xmlns:xlink="http://www.w3.org/1999/xlink" x="0px" y="0px"
	 width="100%" viewBox="0 0 1427 707" enable-background="new 0 0 1427 707" xml:space="preserve">

<path fill="#010101" opacity="1.000000" stroke="none" 
	d="
M428.001892,361.221283 
	C491.628113,361.218109 554.754517,361.218109 618.684387,361.218109 
	C615.686829,374.834900 612.951111,387.212280 610.238159,399.594635 
	C599.147095,450.216736 588.082214,500.844604 576.966858,551.461365 
	C572.421631,572.158936 567.779419,592.835327 563.168701,613.518494 
	C557.153564,640.501526 551.182251,667.494690 544.969482,694.432190 
	C544.580017,696.120667 542.255005,698.631958 540.840210,698.625549 
	C517.184082,698.518372 493.529419,698.075134 469.875031,697.672546 
	C469.277191,697.662354 468.686005,697.264099 467.292511,696.754761 
	C476.844727,652.117493 486.375916,607.578369 496.028229,562.473206 
	C492.723877,561.966309 490.320526,561.324646 487.903503,561.268127 
	C455.925934,560.520386 423.945129,559.904480 391.969147,559.097961 
	C388.481903,559.010071 387.608521,560.368103 386.954193,563.515747 
	C378.107941,606.069519 369.066040,648.582642 360.201996,691.132812 
	C359.560364,694.212830 358.527649,695.959839 355.185516,696.044861 
	C332.372772,696.625305 309.561707,697.270813 286.749725,697.881348 
	C286.266449,697.894226 285.778656,697.737854 284.775208,697.577881 
	C286.858612,687.856628 288.872894,678.200806 291.001343,668.570374 
	C301.199951,622.425415 311.454041,576.292725 321.641113,530.145264 
	C331.649353,484.807709 341.615295,439.460754 351.564789,394.110260 
	C353.560822,385.012238 355.518860,375.902252 357.249115,366.751404 
	C357.902771,363.294403 359.044678,361.798431 363.014221,361.801147 
	C384.510010,361.815857 406.006104,361.455566 428.001892,361.221283 
M419.182892,427.284637 
	C418.120239,428.448059 416.386139,429.468903 416.103912,430.798004 
	C414.284180,439.368378 412.789124,448.007538 411.173553,456.621521 
	C408.740448,469.594543 406.295868,482.565430 403.846619,495.587982 
	C404.559509,495.790710 405.026886,496.043762 405.491364,496.038605 
	C439.798004,495.656616 474.104980,495.290436 508.408417,494.712433 
	C509.691376,494.690826 511.758881,492.787933 512.078552,491.435120 
	C515.843628,475.502075 519.370422,459.512360 522.900208,443.524353 
	C524.057068,438.284241 525.041077,433.005920 526.220093,427.171204 
	C490.248260,427.171204 455.156281,427.171204 419.182892,427.284637 
z"/>
<path fill="#010101" opacity="1.000000" stroke="none" 
	d="
M621.664734,347.784851 
	C620.218262,348.527374 618.821228,349.074341 617.424011,349.075165 
	C533.111694,349.124023 448.799408,349.128662 364.487091,349.127808 
	C363.505554,349.127777 362.523987,349.001373 361.294800,348.916931 
	C367.569000,320.457611 373.788940,292.205475 380.027161,263.957306 
	C390.285248,217.506241 400.514893,171.048798 410.833527,124.611153 
	C418.438385,90.386284 426.224579,56.201519 433.739075,21.957006 
	C434.413910,18.881638 435.387756,17.896601 438.515198,17.872889 
	C469.312683,17.639383 500.108398,17.043703 530.905762,16.954277 
	C582.392700,16.804770 633.880432,16.950718 685.367859,16.972103 
	C687.827209,16.973125 690.286560,16.972235 693.725952,16.972235 
	C692.330139,24.212580 691.236938,30.645468 689.839783,37.011635 
	C677.387878,93.747169 664.904541,150.475800 652.385498,207.196548 
	C642.436829,252.271378 632.421631,297.331543 622.456299,342.402710 
	C622.098267,344.022125 621.956604,345.689423 621.664734,347.784851 
M593.773560,82.836441 
	C561.827698,81.877213 529.879517,80.985222 497.938995,79.873207 
	C493.969727,79.735016 493.672729,82.305916 493.099945,84.760452 
	C490.024048,97.941124 487.011810,111.137428 484.091431,124.353477 
	C473.782318,171.006744 463.504639,217.666962 453.254883,264.333313 
	C451.668030,271.558136 450.289520,278.828705 448.653839,286.868652 
	C485.735138,287.730011 522.105103,288.574829 558.689331,289.424652 
	C573.713257,220.267838 588.576294,151.851288 603.558960,82.884247 
	C599.987732,82.884247 597.347229,82.884247 593.773560,82.836441 
z"/>
<path fill="#010101" opacity="1.000000" stroke="none" 
	d="
M331.438293,433.421753 
	C325.004272,462.590546 318.763733,491.377808 312.449524,520.148926 
	C310.049774,531.083679 307.326050,541.949219 305.060242,552.910400 
	C304.071808,557.692322 302.095398,559.467407 296.843353,559.471436 
	C240.701324,559.514282 184.559525,559.874573 128.417679,560.146118 
	C126.431015,560.155701 124.444267,560.147339 122.069069,560.147339 
	C119.761200,570.302551 117.441757,580.264465 115.237686,590.251770 
	C107.822739,623.851074 100.421234,657.453491 93.113571,691.076172 
	C92.550690,693.666077 91.969017,695.124756 88.808495,695.110168 
	C62.006950,694.985901 35.204578,695.039185 7.480102,695.039185 
	C9.614954,684.904663 11.422802,676.095703 13.329693,667.308167 
	C23.196718,621.838379 32.994045,576.353027 42.997242,530.913147 
	C54.875702,476.954803 66.982635,423.046692 78.847206,369.085327 
	C79.910156,364.250916 82.122078,361.860321 87.132790,362.116760 
	C89.453773,362.235535 91.792458,361.946991 94.123131,361.946655 
	C174.758698,361.934601 255.394272,361.928558 336.029846,361.956787 
	C339.279114,361.957916 342.528229,362.299957 346.873016,362.544891 
	C341.659119,386.612335 336.630798,409.823059 331.438293,433.421753 
M221.760849,426.789703 
	C199.443298,426.489746 177.124893,426.236389 154.809235,425.831757 
	C151.970032,425.780304 150.687012,426.612335 150.092529,429.451904 
	C146.769958,445.321899 143.261688,461.152954 139.869385,477.008545 
	C138.673691,482.597321 137.626465,488.217834 136.461639,494.074219 
	C138.341537,494.382904 139.457352,494.731232 140.571106,494.724823 
	C166.889038,494.572784 193.206772,494.288483 219.524490,494.293610 
	C223.824951,494.294464 225.110535,492.405090 225.900620,488.691559 
	C228.865356,474.756836 232.094727,460.878662 235.171341,446.967438 
	C236.616119,440.434753 237.939026,433.875122 239.422180,426.828735 
	C233.331299,426.828735 228.022293,426.828735 221.760849,426.789703 
z"/>
<path fill="#010101" opacity="1.000000" stroke="none" 
	d="
M1133.062500,130.147827 
	C1141.398193,92.989883 1149.588989,56.238052 1158.042236,19.546713 
	C1158.380615,18.077675 1161.174683,16.235531 1162.884888,16.171295 
	C1175.536011,15.696113 1188.201904,15.520725 1200.864014,15.471703 
	C1208.692627,15.441391 1216.524170,15.758296 1224.351562,16.009295 
	C1226.292480,16.071535 1228.222412,16.483171 1230.991211,16.842365 
	C1228.941406,27.145315 1227.113647,36.955036 1225.027100,46.709404 
	C1217.416748,82.283386 1209.840210,117.865349 1202.028564,153.395386 
	C1189.259399,211.474838 1176.309448,269.514557 1163.456665,327.575684 
	C1162.345825,332.593933 1161.328125,337.635040 1160.384033,342.687317 
	C1159.630981,346.716614 1157.726562,348.229340 1153.265625,348.249146 
	C1096.275391,348.502289 1039.286499,349.062683 982.296509,349.422546 
	C960.133972,349.562500 937.969543,349.394897 915.805969,349.367889 
	C914.004150,349.365692 912.202393,349.367584 909.667969,349.367584 
	C911.981567,338.658356 914.097839,328.552063 916.360535,318.478638 
	C918.495605,308.973053 920.888306,299.524536 922.951782,290.004120 
	C923.703064,286.537720 925.104065,285.092102 928.950806,285.070740 
	C978.107361,284.797852 1027.262573,284.266449 1076.419189,284.050476 
	C1080.962280,284.030487 1082.833618,282.686188 1083.816406,278.354523 
	C1088.170410,259.165466 1092.798950,240.038696 1097.602661,219.729019 
	C1045.314697,218.980042 993.813904,218.242355 940.787659,217.482803 
	C953.777527,149.567245 968.580688,82.943222 982.783691,16.460258 
	C1006.080505,16.460258 1028.985840,16.460258 1053.001953,16.460258 
	C1043.527100,65.733498 1034.273071,113.858582 1024.942749,162.380310 
	C1026.767334,162.748245 1027.995361,163.190491 1029.232422,163.216873 
	C1059.709839,163.867203 1090.189331,164.425674 1120.664795,165.152161 
	C1124.200439,165.236435 1125.533691,164.071793 1126.227783,160.597412 
	C1128.236694,150.539276 1130.686890,140.569244 1133.062500,130.147827 
z"/>
<path fill="#010101" opacity="1.000000" stroke="none" 
	d="
M934.128906,185.183105 
	C932.040283,194.246582 929.984070,202.888596 928.006531,211.548569 
	C927.179688,215.169724 925.612000,217.519608 921.307800,217.065811 
	C918.681274,216.788879 915.987427,217.212067 913.323547,217.218857 
	C861.336792,217.351517 809.349854,217.555176 757.363525,217.452209 
	C752.357300,217.442291 751.003113,219.323792 750.045166,223.672867 
	C741.175110,263.941620 732.133484,304.172729 722.995239,344.381500 
	C722.669739,345.813751 720.830811,347.981720 719.684448,347.989777 
	C691.039246,348.191254 662.392334,348.147980 632.885559,348.147980 
	C657.186523,237.528397 681.393250,127.338165 705.703064,16.678507 
	C794.668091,16.678507 882.762939,16.678507 971.223755,16.678507 
	C969.457825,25.152828 967.730103,33.839146 965.831482,42.487961 
	C956.897827,83.182739 947.930664,123.870155 938.940369,164.552460 
	C937.446777,171.310913 935.779846,178.031052 934.128906,185.183105 
M816.499878,164.110916 
	C830.488037,164.299713 844.477112,164.443741 858.463623,164.718018 
	C861.018677,164.768127 862.323059,164.158234 862.958801,161.386719 
	C867.108643,143.294495 871.500732,125.258034 875.721191,107.181747 
	C877.779602,98.365158 879.638794,89.502022 881.634583,80.449257 
	C880.156311,80.248344 879.349670,80.043663 878.542786,80.042763 
	C848.385437,80.009064 818.227661,80.057999 788.071106,79.898552 
	C784.159363,79.877869 782.927185,81.792252 782.164795,85.014633 
	C778.428589,100.805267 774.605774,116.575409 770.835266,132.357971 
	C768.419861,142.468536 766.041992,152.588058 763.315613,164.104675 
	C781.247498,164.104675 798.373657,164.104675 816.499878,164.110916 
z"/>
<path fill="#010101" opacity="1.000000" stroke="none" 
	d="
M1124.113892,558.202698 
	C1132.820557,518.600464 1141.396606,479.398895 1150.045166,440.213379 
	C1155.682129,414.672577 1161.423584,389.154846 1167.124756,363.628235 
	C1167.298584,362.850250 1167.545410,362.088562 1167.635254,361.764008 
	C1238.595825,361.764008 1309.175659,361.764008 1380.589966,361.764008 
	C1379.292358,368.795319 1378.265625,374.918182 1377.019287,380.996002 
	C1374.323608,394.140503 1371.348511,407.230316 1368.856812,420.412292 
	C1368.121948,424.300079 1366.481445,425.731232 1362.683960,425.680420 
	C1356.189209,425.593536 1349.690796,425.860565 1343.193848,425.862946 
	C1312.195190,425.874298 1281.196045,425.909607 1250.198120,425.755676 
	C1246.168213,425.735687 1244.098389,426.456940 1243.084961,430.960632 
	C1238.862793,449.726776 1234.136841,468.379456 1229.616333,487.078735 
	C1229.193481,488.828217 1228.916016,490.612854 1228.272949,493.909973 
	C1269.473877,493.909973 1310.008179,493.909973 1351.769531,493.909973 
	C1350.347778,501.080841 1349.314697,506.644043 1348.134277,512.175842 
	C1345.092407,526.431580 1341.811523,540.639404 1339.023804,554.943909 
	C1338.302612,558.644104 1336.742554,559.322510 1333.405273,559.350281 
	C1310.915405,559.536804 1288.426758,559.888550 1265.938354,560.230652 
	C1250.109375,560.471375 1234.281982,560.869324 1218.452393,560.979675 
	C1215.575562,560.999695 1214.161133,562.055847 1213.359497,564.570984 
	C1206.366699,586.507812 1199.359497,608.440063 1192.007080,631.468140 
	C1196.503784,631.684875 1200.044922,631.999329 1203.586548,632.004028 
	C1239.416138,632.051514 1275.245728,632.021423 1311.075073,632.105591 
	C1314.326538,632.113220 1317.576538,632.764648 1321.351318,633.173889 
	C1317.057495,653.533813 1312.961060,673.257690 1308.607666,692.924683 
	C1308.317139,694.237183 1306.123535,695.986694 1304.736572,696.060669 
	C1294.755249,696.592896 1284.752319,697.012024 1274.758301,696.973022 
	C1216.098755,696.743958 1157.439697,696.380859 1098.780396,696.053589 
	C1097.466919,696.046265 1096.153931,695.928711 1094.236206,695.832153 
	C1104.203735,649.899963 1114.108887,604.255066 1124.113892,558.202698 
z"/>
<path fill="#010101" opacity="1.000000" stroke="none" 
	d="
M175.243347,15.303727 
	C257.657990,15.786171 339.596283,16.275091 422.529663,16.769949 
	C421.279785,23.081436 420.281189,28.510563 419.121094,33.904949 
	C416.343048,46.822628 413.416351,59.708752 410.708496,72.640869 
	C409.859619,76.694992 408.012573,78.108833 403.628510,78.120125 
	C346.816406,78.266464 290.004913,78.651741 233.193283,78.973297 
	C224.725403,79.021225 224.772064,79.023666 222.888412,87.352966 
	C216.525330,115.489647 210.033066,143.597443 203.764008,171.754974 
	C195.781387,207.608932 187.964188,243.499756 180.095261,279.378998 
	C179.747223,280.965881 179.593567,282.595428 179.209457,285.127380 
	C240.728027,284.043793 301.840179,284.234985 364.033478,284.190582 
	C361.843628,294.332397 360.026337,302.842377 358.165619,311.342804 
	C355.761322,322.326569 353.185577,333.275360 350.973389,344.297333 
	C350.213257,348.084564 348.548676,349.247040 344.705841,349.240814 
	C304.553406,349.175751 264.400665,349.359253 224.248001,349.351135 
	C187.425552,349.343689 150.603149,349.180695 113.780685,349.097107 
	C104.141243,349.075226 94.501701,349.093781 83.066002,349.093781 
	C107.631599,237.156387 131.854782,126.779327 156.125427,16.185932 
	C162.502380,15.886360 168.634659,15.598281 175.243347,15.303727 
z"/>
<path fill="#010101" opacity="1.000000" stroke="none" 
	d="
M623.000000,632.049805 
	C633.499512,632.056396 643.512878,631.753906 653.492310,632.204529 
	C658.096069,632.412415 659.400940,630.545776 660.267517,626.583801 
	C667.845581,591.939087 675.541260,557.320007 683.270935,522.708679 
	C692.987244,479.201752 702.792603,435.714722 712.503540,392.206635 
	C714.735657,382.206177 716.739685,372.154816 718.892700,361.917419 
	C777.588989,361.917419 835.684387,361.917419 895.139221,361.917419 
	C890.556946,383.616394 886.159363,404.440613 881.712280,425.499146 
	C875.620605,425.499146 869.993286,425.548248 864.367065,425.489960 
	C847.205322,425.312103 830.042664,425.165039 812.883911,424.826294 
	C809.614868,424.761810 808.527954,425.711395 807.745850,429.049500 
	C796.400574,477.467560 784.796265,525.824890 773.319824,574.212280 
	C764.124817,612.980347 755.010498,651.767517 745.891724,690.553589 
	C745.223450,693.395874 744.210022,695.086060 740.695190,695.117188 
	C680.042786,695.652832 619.391541,696.328125 558.739990,696.965332 
	C558.251709,696.970459 557.762329,696.872681 556.393311,696.733398 
	C560.981140,675.150452 565.536194,653.721863 570.143250,632.048767 
	C587.889771,632.048767 605.194885,632.048767 623.000000,632.049805 
z"/>
<path fill="#010101" opacity="1.000000" stroke="none" 
	d="
M1122.995605,424.898193 
	C1103.670044,425.164368 1084.843384,425.583130 1066.016724,425.578918 
	C1061.822510,425.577972 1060.183350,427.038025 1059.286255,430.873077 
	C1052.896606,458.188721 1046.339478,485.465088 1039.883911,512.765381 
	C1031.049561,550.125244 1022.232544,587.489258 1013.457825,624.863159 
	C1008.236389,647.102905 1003.044312,669.350098 998.003174,691.631042 
	C997.112915,695.565735 995.498596,697.630859 991.172180,697.554382 
	C982.348938,697.398438 973.518982,697.673828 964.693298,697.596558 
	C952.031311,697.485718 939.368774,697.300476 926.710388,696.985168 
	C919.918335,696.816040 913.134644,696.308655 904.913391,695.879028 
	C926.218262,605.913513 947.402222,516.458435 968.810974,426.054047 
	C965.145874,426.054047 962.366150,426.104065 959.588745,426.045990 
	C941.770996,425.673431 923.952820,425.314667 906.137329,424.853485 
	C902.995300,424.772217 899.820923,424.435028 896.757019,423.773743 
	C895.864075,423.581024 894.534180,421.706238 894.700684,420.856262 
	C898.396240,401.984436 902.235474,383.140137 906.226318,364.328552 
	C906.431824,363.359802 908.141174,362.520172 909.319275,362.011658 
	C910.162598,361.647644 911.288513,361.936829 912.288330,361.936798 
	C989.109070,361.935455 1065.929810,361.934296 1142.750488,361.933197 
	C1146.704224,361.933136 1150.657837,361.933228 1155.627197,361.933228 
	C1153.911865,370.548981 1152.530273,377.982117 1150.938477,385.369995 
	C1148.394043,397.179077 1145.820312,408.985077 1142.947632,420.716125 
	C1142.582153,422.208801 1140.447632,424.158203 1138.957764,424.323975 
	C1133.845337,424.892761 1128.655151,424.762177 1122.995605,424.898193 
z"/>
<path fill="#030303" opacity="1.000000" stroke="none" 
	d="
M1314.119873,265.079529 
	C1308.385742,290.015289 1302.732178,314.534790 1297.019287,339.040436 
	C1294.671753,349.110077 1294.613892,349.104858 1284.328491,349.106110 
	C1261.177979,349.108917 1238.027588,349.102539 1214.877075,349.100220 
	C1208.406128,349.099579 1201.935303,349.100128 1194.394409,349.100128 
	C1196.224487,339.990051 1197.591309,332.091522 1199.414673,324.299774 
	C1207.288818,290.650085 1215.279053,257.027405 1223.331177,223.419861 
	C1223.605103,222.276276 1225.007568,220.514023 1225.852905,220.531769 
	C1236.115967,220.747101 1246.373047,221.242798 1258.242432,221.732025 
	C1250.131958,256.366638 1242.262573,289.971436 1234.269165,324.106079 
	C1235.967163,324.449524 1237.526978,325.022766 1239.092651,325.039124 
	C1248.085327,325.133179 1257.080566,325.012390 1266.072388,325.144073 
	C1269.509399,325.194427 1270.549072,323.445923 1271.198486,320.407013 
	C1277.771118,289.646759 1284.549683,258.930298 1291.034790,228.151855 
	C1291.965576,223.734451 1293.948975,222.051575 1298.312866,222.142822 
	C1306.437622,222.312698 1314.568481,222.191559 1323.780884,222.191559 
	C1320.485596,236.762131 1317.331055,250.709915 1314.119873,265.079529 
z"/>

<path fill="#FEFDFD" opacity="1.000000" stroke="none" 
	d="
M419.623596,427.227905 
	C455.156281,427.171204 490.248260,427.171204 526.220093,427.171204 
	C525.041077,433.005920 524.057068,438.284241 522.900208,443.524353 
	C519.370422,459.512360 515.843628,475.502075 512.078552,491.435120 
	C511.758881,492.787933 509.691376,494.690826 508.408417,494.712433 
	C474.104980,495.290436 439.798004,495.656616 405.491364,496.038605 
	C405.026886,496.043762 404.559509,495.790710 403.846619,495.587982 
	C406.295868,482.565430 408.740448,469.594543 411.173553,456.621521 
	C412.789124,448.007538 414.284180,439.368378 416.103912,430.798004 
	C416.386139,429.468903 418.120239,428.448059 419.623596,427.227905 
z"/>
<path fill="#FEFEFE" opacity="1.000000" stroke="none" 
	d="
M594.240112,82.860344 
	C597.347229,82.884247 599.987732,82.884247 603.558960,82.884247 
	C588.576294,151.851288 573.713257,220.267838 558.689331,289.424652 
	C522.105103,288.574829 485.735138,287.730011 448.653839,286.868652 
	C450.289520,278.828705 451.668030,271.558136 453.254883,264.333313 
	C463.504639,217.666962 473.782318,171.006744 484.091431,124.353477 
	C487.011810,111.137428 490.024048,97.941124 493.099945,84.760452 
	C493.672729,82.305916 493.969727,79.735016 497.938995,79.873207 
	C529.879517,80.985222 561.827698,81.877213 594.240112,82.860344 
z"/>
<path fill="#FDFCFC" opacity="1.000000" stroke="none" 
	d="
M222.237076,426.809204 
	C228.022293,426.828735 233.331299,426.828735 239.422180,426.828735 
	C237.939026,433.875122 236.616119,440.434753 235.171341,446.967438 
	C232.094727,460.878662 228.865356,474.756836 225.900620,488.691559 
	C225.110535,492.405090 223.824951,494.294464 219.524490,494.293610 
	C193.206772,494.288483 166.889038,494.572784 140.571106,494.724823 
	C139.457352,494.731232 138.341537,494.382904 136.461639,494.074219 
	C137.626465,488.217834 138.673691,482.597321 139.869385,477.008545 
	C143.261688,461.152954 146.769958,445.321899 150.092529,429.451904 
	C150.687012,426.612335 151.970032,425.780304 154.809235,425.831757 
	C177.124893,426.236389 199.443298,426.489746 222.237076,426.809204 
z"/>
<path fill="#FEFEFE" opacity="1.000000" stroke="none" 
	d="
M815.999878,164.107788 
	C798.373657,164.104675 781.247498,164.104675 763.315613,164.104675 
	C766.041992,152.588058 768.419861,142.468536 770.835266,132.357971 
	C774.605774,116.575409 778.428589,100.805267 782.164795,85.014633 
	C782.927185,81.792252 784.159363,79.877869 788.071106,79.898552 
	C818.227661,80.057999 848.385437,80.009064 878.542786,80.042763 
	C879.349670,80.043663 880.156311,80.248344 881.634583,80.449257 
	C879.638794,89.502022 877.779602,98.365158 875.721191,107.181747 
	C871.500732,125.258034 867.108643,143.294495 862.958801,161.386719 
	C862.323059,164.158234 861.018677,164.768127 858.463623,164.718018 
	C844.477112,164.443741 830.488037,164.299713 815.999878,164.107788 
z"/>
</svg>