<svg version="1.1" id="Layer_1" xmlns="http://www.w3.org/2000/svg" xmlns:xlink="http://www.w3.org/1999/xlink" x="0px" y="0px"
	 width="100%" viewBox="0 0 1224 729" enable-background="new 0 0 1224 729" xml:space="preserve">
<path fill="black" opacity="1.000000" stroke="none" 
	d="
M494.894989,603.846802 
	C489.157684,634.352295 483.480530,664.432373 477.748932,694.801025 
	C457.819214,694.801025 437.890503,694.801025 417.342194,694.801025 
	C425.696320,650.108765 433.994690,605.714722 442.437805,560.546509 
	C412.485992,559.623047 383.106842,558.717163 353.040039,557.790161 
	C345.113617,602.919434 337.217804,647.874756 329.269104,693.130981 
	C306.454315,693.720276 284.007965,694.300110 260.855164,694.898132 
	C281.642700,584.073425 302.351624,473.667755 323.109741,362.999756 
	C395.340759,362.999756 467.408813,362.999756 539.984863,362.999756 
	C524.943726,443.307220 509.949402,523.364319 494.894989,603.846802 
M404.318665,494.533722 
	C421.232086,494.533722 438.145477,494.533722 455.157806,494.533722 
	C459.287109,471.522186 463.211365,449.653198 467.154144,427.680908 
	C436.883606,427.680908 407.135468,427.680908 376.957886,427.680908 
	C373.367981,450.222504 369.834656,472.408966 366.307861,494.554260 
	C379.071716,494.554260 391.213409,494.554260 404.318665,494.533722 
z"/>
<path fill="black" opacity="1.000000" stroke="none" 
	d="
M597.686096,55.639130 
	C579.057434,154.801376 560.527222,253.545502 542.022400,352.154053 
	C469.581787,352.154053 397.511444,352.154053 325.079132,352.154053 
	C345.752869,242.203140 366.316284,132.838882 386.858734,23.586143 
	C459.363739,23.586143 531.126099,23.586143 603.545776,23.586143 
	C601.581299,34.372898 599.682922,44.796963 597.686096,55.639130 
M420.640259,288.778595 
	C444.915314,289.351379 469.190338,289.924194 493.851868,290.506073 
	C506.295929,223.089478 518.688599,155.951431 531.084839,88.793785 
	C530.188293,88.530563 529.725647,88.286873 529.255920,88.272270 
	C501.124756,87.397896 472.991760,86.579506 444.863159,85.630150 
	C441.908295,85.530426 441.356018,86.872887 440.889313,89.362534 
	C430.012024,147.385864 419.043427,205.392075 408.109314,263.404755 
	C406.584961,271.492493 405.152618,279.597595 403.485107,288.751862 
	C409.410126,288.751862 414.544617,288.751862 420.640259,288.778595 
z"/>
<path fill="black" opacity="1.000000" stroke="none" 
	d="
M311.418274,362.780121 
	C311.501038,366.792603 311.458252,370.808441 310.733276,374.697052 
	C299.514740,434.871521 288.209351,495.029785 276.911377,555.189453 
	C276.636627,556.652222 276.216431,558.087708 275.869354,559.514404 
	C227.925156,559.514404 180.144943,559.514404 131.884796,559.514404 
	C129.958481,569.801147 127.979958,580.230652 126.055283,590.669983 
	C120.023544,623.385803 114.046700,656.111877 107.871323,688.800537 
	C107.613853,690.163391 105.578384,692.218750 104.367310,692.221497 
	C79.545708,692.277771 54.723526,692.083435 29.901587,691.919739 
	C29.602394,691.917786 29.304842,691.664856 28.636892,691.360901 
	C49.122337,582.099487 69.625221,472.745087 90.253036,362.724274 
	C163.822556,362.724274 237.398987,362.724274 311.418274,362.780121 
M192.500000,426.999023 
	C180.403458,426.999023 168.306931,426.999023 156.153137,426.999023 
	C152.020035,449.139008 147.951233,470.934601 143.842163,492.945923 
	C168.277496,492.945923 192.040131,492.945923 216.299103,492.945923 
	C220.406921,471.159760 224.484039,449.536469 228.733292,427.000214 
	C216.416275,427.000214 204.958130,427.000214 192.500000,426.999023 
z"/>
<path fill="black" opacity="1.000000" stroke="none" 
	d="
M785.974182,221.904282 
	C742.193726,221.902588 698.908142,221.902588 655.294800,221.902588 
	C647.179077,265.140381 639.019897,308.610046 630.820129,352.295959 
	C604.735107,352.295959 578.837585,352.295959 552.270447,352.295959 
	C554.361267,340.912170 556.327759,330.017487 558.366455,319.136292 
	C570.929993,252.079956 583.510132,185.026733 596.083862,117.972336 
	C601.757385,87.716103 607.453674,57.464088 613.058350,27.195120 
	C613.557678,24.498358 614.434326,23.254282 617.502136,23.258162 
	C689.332275,23.349051 761.162537,23.334404 832.992737,23.350584 
	C833.476746,23.350693 833.960754,23.509605 835.377014,23.757629 
	C823.007874,89.753250 810.652344,155.676086 798.239258,221.905975 
	C794.065857,221.905975 790.267395,221.905975 785.974182,221.904282 
M680.507812,167.774612 
	C702.440369,167.774612 724.372925,167.774612 746.656189,167.774612 
	C752.077576,140.551270 757.535156,113.146317 763.057922,85.414215 
	C735.681396,85.414215 709.070374,85.414215 681.999329,85.414215 
	C676.305908,112.658524 670.618286,139.875366 664.792603,167.752838 
	C670.213013,167.752838 674.862488,167.752838 680.507812,167.774612 
z"/>
<path fill="black" opacity="1.000000" stroke="none" 
	d="
M929.989136,286.911926 
	C934.810059,286.913330 939.133606,286.913330 944.080933,286.913330 
	C947.807068,265.623810 951.518738,244.416946 955.376160,222.376953 
	C906.940613,222.376953 859.075378,222.376953 810.633179,222.376953 
	C822.578979,155.768005 834.375427,89.991875 846.250427,23.777496 
	C865.966431,23.777496 885.681946,23.777496 906.239502,23.777496 
	C898.268188,71.402077 890.298645,119.016151 882.168518,167.589874 
	C887.365356,167.589874 891.995544,167.519669 896.623169,167.601898 
	C918.115479,167.983749 939.608276,168.358093 961.097656,168.871735 
	C964.235046,168.946716 965.638306,168.383362 966.292664,164.814667 
	C974.695129,118.992203 983.334900,73.213287 991.860474,27.413277 
	C992.280518,25.156683 992.382812,23.260452 995.534851,23.279747 
	C1014.197266,23.393984 1032.860596,23.358595 1051.523682,23.398252 
	C1051.974609,23.399210 1052.425049,23.687881 1053.454834,24.040867 
	C1032.984375,133.224731 1012.513306,242.411301 992.028320,351.671936 
	C922.984314,351.671936 854.205872,351.671936 784.936890,351.671936 
	C788.758850,329.803711 792.522583,308.268829 796.255371,286.910553 
	C840.920166,286.910553 885.205994,286.910553 929.989136,286.911926 
z"/>
<path fill="black" opacity="1.000000" stroke="none" 
	d="
M1053.752686,482.749573 
	C1053.033447,486.247833 1052.405762,489.329987 1051.648315,493.049744 
	C1085.933105,493.049744 1119.799805,493.049744 1154.046997,493.049744 
	C1149.836060,515.565430 1145.743164,537.450623 1141.537476,559.938660 
	C1139.692871,559.938660 1137.915161,559.944336 1136.137329,559.937866 
	C1105.641846,559.826477 1075.145996,559.773499 1044.651611,559.522095 
	C1041.013794,559.492126 1039.538696,560.476440 1038.625488,564.164734 
	C1033.510620,584.825317 1028.052124,605.400879 1022.722046,626.008362 
	C1022.484619,626.926331 1022.354126,627.871948 1022.184814,628.747620 
	C1057.671021,628.747620 1092.927734,628.747620 1128.653076,628.747620 
	C1124.573120,650.603333 1120.492676,672.461792 1116.359619,694.601868 
	C1057.157959,694.601868 998.257996,694.601868 938.339294,694.601868 
	C958.871826,584.038513 979.370972,473.655151 999.917847,363.014771 
	C1059.283325,363.014771 1118.368652,363.014771 1178.252563,363.014771 
	C1177.116333,369.410217 1176.051392,375.691406 1174.877441,381.952148 
	C1172.363159,395.361389 1169.556519,408.722015 1167.383911,422.185516 
	C1166.701294,426.415436 1164.982056,427.029663 1161.239258,427.002899 
	C1131.244751,426.788116 1101.248535,426.776306 1071.252930,426.703339 
	C1069.431274,426.698914 1067.609741,426.702789 1065.139404,426.702789 
	C1061.363770,445.298676 1057.604126,463.816071 1053.752686,482.749573 
z"/>
<path fill="black" opacity="1.000000" stroke="none" 
	d="
M149.903259,44.852886 
	C151.247284,37.578007 152.529984,30.728537 153.858154,23.636200 
	C228.047668,23.636200 301.925598,23.636200 376.512207,23.636200 
	C372.677277,44.160133 368.899170,64.379776 365.096527,84.730774 
	C315.791626,84.730774 266.724670,84.730774 217.338715,84.730774 
	C204.542480,152.094849 191.763596,219.367477 178.864838,287.271179 
	C228.401932,286.659546 277.487610,286.053467 327.426849,285.436859 
	C323.200745,308.032104 319.060547,330.168152 314.889679,352.468201 
	C240.653015,352.468201 166.726715,352.468201 92.223450,352.468201 
	C94.668533,339.305206 97.040276,326.438568 99.450371,313.579132 
	C110.972885,252.098999 122.498070,190.619385 134.038559,129.142609 
	C139.286957,101.184196 144.572983,73.232849 149.903259,44.852886 
z"/>
<path fill="black" opacity="1.000000" stroke="none" 
	d="
M639.951538,692.992065 
	C589.484558,692.995422 539.508972,692.995422 489.066284,692.995422 
	C492.984528,671.885437 497.028076,650.100342 501.036957,628.502014 
	C526.752869,628.502014 552.044922,628.502014 577.824707,628.502014 
	C594.250183,540.237366 610.708984,451.793457 627.225647,363.038574 
	C675.237366,363.038574 723.150574,363.038574 771.740601,363.038574 
	C767.746338,384.397552 763.793091,405.536804 759.895325,426.379395 
	C740.827148,426.379395 722.202881,426.379395 702.774963,426.379395 
	C685.264954,514.779175 667.661438,603.651062 649.965698,692.988708 
	C646.695740,692.988708 643.569336,692.988708 639.951538,692.992065 
z"/>
<path fill="black" opacity="1.000000" stroke="none" 
	d="
M894.858398,513.770386 
	C886.868042,554.504883 878.936279,594.817505 871.029907,635.135071 
	C867.284729,654.233093 863.592224,673.341431 859.853638,692.440674 
	C859.698914,693.231018 859.317261,693.976990 859.219910,694.247437 
	C833.267334,694.247437 807.655457,694.247437 781.219299,694.247437 
	C799.316528,604.582581 817.234924,515.803955 835.271240,426.441101 
	C814.133606,426.441101 793.470215,426.441101 772.188660,426.441101 
	C775.516479,404.903168 778.752441,383.959930 782.005554,362.905334 
	C851.462708,362.905334 920.381592,362.905334 989.899353,362.905334 
	C985.941345,384.044647 982.040833,404.877167 978.082703,426.017273 
	C956.020447,426.017273 934.224060,426.017273 911.981262,426.017273 
	C906.261841,455.306488 900.594604,484.328491 894.858398,513.770386 
z"/>
<path fill="black" opacity="1.000000" stroke="none" 
	d="
M1087.999390,351.812927 
	C1065.713501,351.809174 1043.927490,351.809174 1021.554871,351.809174 
	C1030.260132,308.170471 1038.712280,265.800262 1047.114258,223.681747 
	C1057.140625,223.681747 1066.909912,223.681747 1077.351196,223.681747 
	C1070.306519,258.335297 1063.407349,292.272919 1056.436157,326.565247 
	C1066.602051,326.565247 1076.042480,326.565247 1085.845337,326.565247 
	C1091.879150,292.412689 1097.891602,258.380310 1103.947754,224.100830 
	C1113.138184,224.100830 1122.074341,224.100830 1131.667603,224.100830 
	C1123.480103,266.744110 1115.342163,309.128693 1107.145996,351.816711 
	C1100.734253,351.816711 1094.616699,351.816711 1087.999390,351.812927 
z"/>
<path fill="black" opacity="1.000000" stroke="none" 
	d="
M1152.846191,223.525650 
	C1163.310059,223.239609 1173.435181,223.239609 1184.372437,223.239609 
	C1176.414795,266.764557 1168.661621,309.171906 1160.880127,351.733948 
	C1149.868408,351.733948 1139.094482,351.733948 1127.786011,351.733948 
	C1136.062622,308.906708 1144.285034,266.359192 1152.846191,223.525650 
z"/>
</svg>